<mxfile host="app.diagrams.net" modified="2023-03-20T22:42:02.429Z" agent="5.0 (Windows NT 10.0; Win64; x64) AppleWebKit/537.36 (KHTML, like Gecko) Chrome/111.0.0.0 Safari/537.36" etag="Gqz03ujVpM_0TWKJd9KU" version="21.0.7" type="github">
  <diagram id="Ht1M8jgEwFfnCIfOTk4-" name="Page-1">
    <mxGraphModel dx="2390" dy="1337" grid="0" gridSize="10" guides="1" tooltips="1" connect="1" arrows="1" fold="1" page="1" pageScale="1" pageWidth="1700" pageHeight="800" background="#ffffff" math="0" shadow="0">
      <root>
        <mxCell id="0" />
        <mxCell id="1" parent="0" />
        <mxCell id="32" style="edgeStyle=none;shape=connector;rounded=1;html=1;entryX=0.005;entryY=0.63;entryDx=0;entryDy=0;entryPerimeter=0;labelBackgroundColor=default;strokeColor=#000000;fontFamily=Helvetica;fontSize=12;fontColor=#000000;endArrow=classic;" parent="1" source="2" target="17" edge="1">
          <mxGeometry relative="1" as="geometry" />
        </mxCell>
        <mxCell id="33" style="edgeStyle=none;shape=connector;rounded=1;html=1;entryX=0.005;entryY=0.63;entryDx=0;entryDy=0;entryPerimeter=0;labelBackgroundColor=default;strokeColor=#000000;fontFamily=Helvetica;fontSize=12;fontColor=#000000;endArrow=classic;" parent="1" source="2" target="24" edge="1">
          <mxGeometry relative="1" as="geometry" />
        </mxCell>
        <mxCell id="34" style="edgeStyle=none;shape=connector;rounded=1;html=1;entryX=0.005;entryY=0.63;entryDx=0;entryDy=0;entryPerimeter=0;labelBackgroundColor=default;strokeColor=#000000;fontFamily=Helvetica;fontSize=12;fontColor=#000000;endArrow=classic;" parent="1" source="2" target="25" edge="1">
          <mxGeometry relative="1" as="geometry" />
        </mxCell>
        <mxCell id="2" value="API Gateway" style="rounded=0;whiteSpace=wrap;html=1;fontColor=#000000;labelBackgroundColor=none;fillColor=#FFFFFF;gradientColor=none;strokeWidth=1;strokeColor=#000000;" parent="1" vertex="1">
          <mxGeometry x="293" y="328" width="89" height="327" as="geometry" />
        </mxCell>
        <mxCell id="3" value="&amp;nbsp;" style="rounded=1;whiteSpace=wrap;html=1;labelBackgroundColor=none;strokeColor=#000000;strokeWidth=1;fontFamily=Helvetica;fontSize=12;fontColor=#000000;fillColor=#FFFFFF;gradientColor=none;" parent="1" vertex="1">
          <mxGeometry x="639" y="231" width="110" height="60" as="geometry" />
        </mxCell>
        <mxCell id="4" value="Categories SVC" style="rounded=1;whiteSpace=wrap;html=1;labelBackgroundColor=none;strokeColor=#000000;strokeWidth=1;fontFamily=Helvetica;fontSize=12;fontColor=#000000;fillColor=#FFFFFF;gradientColor=none;" parent="1" vertex="1">
          <mxGeometry x="639" y="444" width="120" height="60" as="geometry" />
        </mxCell>
        <mxCell id="5" value="Users" style="rounded=1;whiteSpace=wrap;html=1;labelBackgroundColor=none;strokeColor=#000000;strokeWidth=1;fontFamily=Helvetica;fontSize=12;fontColor=#000000;fillColor=#FFFFFF;gradientColor=none;" parent="1" vertex="1">
          <mxGeometry x="641" y="644" width="120" height="60" as="geometry" />
        </mxCell>
        <mxCell id="14" value="DB" style="shape=cylinder3;whiteSpace=wrap;html=1;boundedLbl=1;backgroundOutline=1;size=15;rounded=0;labelBackgroundColor=none;strokeColor=#000000;strokeWidth=1;fontFamily=Helvetica;fontSize=12;fontColor=#000000;fillColor=#FFFFFF;gradientColor=none;" parent="1" vertex="1">
          <mxGeometry x="794" y="583" width="59" height="61" as="geometry" />
        </mxCell>
        <mxCell id="17" value="" style="sketch=0;html=1;dashed=0;whitespace=wrap;fillColor=#2875E2;strokeColor=#ffffff;points=[[0.005,0.63,0],[0.1,0.2,0],[0.9,0.2,0],[0.5,0,0],[0.995,0.63,0],[0.72,0.99,0],[0.5,1,0],[0.28,0.99,0]];verticalLabelPosition=bottom;align=center;verticalAlign=top;shape=mxgraph.kubernetes.icon;prIcon=ep;rounded=0;labelBackgroundColor=none;strokeWidth=1;fontFamily=Helvetica;fontSize=12;fontColor=#000000;" parent="1" vertex="1">
          <mxGeometry x="583" y="247" width="50" height="48" as="geometry" />
        </mxCell>
        <mxCell id="18" value="Meetings&amp;nbsp;" style="rounded=1;whiteSpace=wrap;html=1;labelBackgroundColor=none;strokeColor=#000000;strokeWidth=1;fontFamily=Helvetica;fontSize=12;fontColor=#000000;fillColor=#FFFFFF;gradientColor=none;" parent="1" vertex="1">
          <mxGeometry x="649" y="241" width="110" height="60" as="geometry" />
        </mxCell>
        <mxCell id="s_vnEofQzstfLWQiZtuY-154" style="edgeStyle=orthogonalEdgeStyle;rounded=0;orthogonalLoop=1;jettySize=auto;html=1;entryX=0;entryY=0.397;entryDx=0;entryDy=0;exitX=1;exitY=0.5;exitDx=0;exitDy=0;entryPerimeter=0;" parent="1" source="19" target="s_vnEofQzstfLWQiZtuY-144" edge="1">
          <mxGeometry relative="1" as="geometry">
            <Array as="points">
              <mxPoint x="769" y="294" />
              <mxPoint x="1177" y="294" />
              <mxPoint x="1177" y="475" />
              <mxPoint x="1248" y="475" />
            </Array>
          </mxGeometry>
        </mxCell>
        <mxCell id="s_vnEofQzstfLWQiZtuY-161" style="edgeStyle=orthogonalEdgeStyle;rounded=0;orthogonalLoop=1;jettySize=auto;html=1;entryX=0.5;entryY=1;entryDx=0;entryDy=0;entryPerimeter=0;" parent="1" source="19" target="FDkSP8f7pUUsBcrE6dv--76" edge="1">
          <mxGeometry relative="1" as="geometry">
            <Array as="points">
              <mxPoint x="893" y="270" />
              <mxPoint x="893" y="139" />
            </Array>
            <mxPoint x="893.3099999999995" y="124" as="targetPoint" />
          </mxGeometry>
        </mxCell>
        <mxCell id="s_vnEofQzstfLWQiZtuY-163" style="edgeStyle=orthogonalEdgeStyle;rounded=0;orthogonalLoop=1;jettySize=auto;html=1;entryX=0.5;entryY=1;entryDx=0;entryDy=0;entryPerimeter=0;" parent="1" source="19" target="s_vnEofQzstfLWQiZtuY-162" edge="1">
          <mxGeometry relative="1" as="geometry">
            <Array as="points">
              <mxPoint x="812" y="270" />
            </Array>
          </mxGeometry>
        </mxCell>
        <mxCell id="s_vnEofQzstfLWQiZtuY-170" style="edgeStyle=orthogonalEdgeStyle;rounded=0;orthogonalLoop=1;jettySize=auto;html=1;entryX=0;entryY=0.5;entryDx=0;entryDy=0;" parent="1" source="19" target="s_vnEofQzstfLWQiZtuY-65" edge="1">
          <mxGeometry relative="1" as="geometry">
            <Array as="points">
              <mxPoint x="902" y="281" />
              <mxPoint x="902" y="226" />
            </Array>
          </mxGeometry>
        </mxCell>
        <mxCell id="19" value="Meetings&amp;nbsp;" style="rounded=1;whiteSpace=wrap;html=1;labelBackgroundColor=none;strokeColor=#000000;strokeWidth=1;fontFamily=Helvetica;fontSize=12;fontColor=#000000;fillColor=#FFFFFF;gradientColor=none;" parent="1" vertex="1">
          <mxGeometry x="659" y="251" width="110" height="60" as="geometry" />
        </mxCell>
        <mxCell id="20" value="Categories SVC" style="rounded=1;whiteSpace=wrap;html=1;labelBackgroundColor=none;strokeColor=#000000;strokeWidth=1;fontFamily=Helvetica;fontSize=12;fontColor=#000000;fillColor=#FFFFFF;gradientColor=none;" parent="1" vertex="1">
          <mxGeometry x="649" y="454" width="120" height="60" as="geometry" />
        </mxCell>
        <mxCell id="s_vnEofQzstfLWQiZtuY-157" style="edgeStyle=orthogonalEdgeStyle;rounded=0;orthogonalLoop=1;jettySize=auto;html=1;entryX=0.5;entryY=1;entryDx=0;entryDy=0;entryPerimeter=0;" parent="1" source="21" target="31" edge="1">
          <mxGeometry relative="1" as="geometry">
            <Array as="points">
              <mxPoint x="893" y="484" />
            </Array>
          </mxGeometry>
        </mxCell>
        <mxCell id="s_vnEofQzstfLWQiZtuY-158" style="edgeStyle=orthogonalEdgeStyle;rounded=0;orthogonalLoop=1;jettySize=auto;html=1;entryX=0;entryY=0.5;entryDx=0;entryDy=0;" parent="1" source="21" target="s_vnEofQzstfLWQiZtuY-144" edge="1">
          <mxGeometry relative="1" as="geometry" />
        </mxCell>
        <mxCell id="s_vnEofQzstfLWQiZtuY-166" style="edgeStyle=orthogonalEdgeStyle;rounded=0;orthogonalLoop=1;jettySize=auto;html=1;entryX=0.5;entryY=1;entryDx=0;entryDy=0;entryPerimeter=0;" parent="1" source="21" target="s_vnEofQzstfLWQiZtuY-165" edge="1">
          <mxGeometry relative="1" as="geometry">
            <Array as="points">
              <mxPoint x="823" y="484" />
            </Array>
          </mxGeometry>
        </mxCell>
        <mxCell id="s_vnEofQzstfLWQiZtuY-174" style="edgeStyle=orthogonalEdgeStyle;rounded=0;orthogonalLoop=1;jettySize=auto;html=1;entryX=0;entryY=0.5;entryDx=0;entryDy=0;" parent="1" source="21" target="s_vnEofQzstfLWQiZtuY-172" edge="1">
          <mxGeometry relative="1" as="geometry">
            <Array as="points">
              <mxPoint x="904" y="494" />
              <mxPoint x="904" y="433" />
            </Array>
          </mxGeometry>
        </mxCell>
        <mxCell id="21" value="Categories" style="rounded=1;whiteSpace=wrap;html=1;labelBackgroundColor=none;strokeColor=#000000;strokeWidth=1;fontFamily=Helvetica;fontSize=12;fontColor=#000000;fillColor=#FFFFFF;gradientColor=none;" parent="1" vertex="1">
          <mxGeometry x="659" y="464" width="120" height="60" as="geometry" />
        </mxCell>
        <mxCell id="22" value="Users" style="rounded=1;whiteSpace=wrap;html=1;labelBackgroundColor=none;strokeColor=#000000;strokeWidth=1;fontFamily=Helvetica;fontSize=12;fontColor=#000000;fillColor=#FFFFFF;gradientColor=none;" parent="1" vertex="1">
          <mxGeometry x="651" y="654" width="120" height="60" as="geometry" />
        </mxCell>
        <mxCell id="s_vnEofQzstfLWQiZtuY-159" style="edgeStyle=orthogonalEdgeStyle;rounded=0;orthogonalLoop=1;jettySize=auto;html=1;entryX=0.5;entryY=1;entryDx=0;entryDy=0;entryPerimeter=0;" parent="1" source="23" target="14" edge="1">
          <mxGeometry relative="1" as="geometry">
            <Array as="points">
              <mxPoint x="824" y="685" />
            </Array>
          </mxGeometry>
        </mxCell>
        <mxCell id="s_vnEofQzstfLWQiZtuY-167" style="edgeStyle=orthogonalEdgeStyle;rounded=0;orthogonalLoop=1;jettySize=auto;html=1;entryX=-0.004;entryY=0.609;entryDx=0;entryDy=0;entryPerimeter=0;" parent="1" source="23" target="s_vnEofQzstfLWQiZtuY-144" edge="1">
          <mxGeometry relative="1" as="geometry">
            <Array as="points">
              <mxPoint x="1179" y="694" />
              <mxPoint x="1179" y="514" />
              <mxPoint x="1247" y="514" />
            </Array>
          </mxGeometry>
        </mxCell>
        <mxCell id="s_vnEofQzstfLWQiZtuY-173" style="edgeStyle=orthogonalEdgeStyle;rounded=0;orthogonalLoop=1;jettySize=auto;html=1;entryX=0;entryY=0.5;entryDx=0;entryDy=0;" parent="1" source="23" target="s_vnEofQzstfLWQiZtuY-171" edge="1">
          <mxGeometry relative="1" as="geometry" />
        </mxCell>
        <mxCell id="23" value="Users" style="rounded=1;whiteSpace=wrap;html=1;labelBackgroundColor=none;strokeColor=#000000;strokeWidth=1;fontFamily=Helvetica;fontSize=12;fontColor=#000000;fillColor=#FFFFFF;gradientColor=none;" parent="1" vertex="1">
          <mxGeometry x="661" y="664" width="120" height="60" as="geometry" />
        </mxCell>
        <mxCell id="24" value="" style="sketch=0;html=1;dashed=0;whitespace=wrap;fillColor=#2875E2;strokeColor=#ffffff;points=[[0.005,0.63,0],[0.1,0.2,0],[0.9,0.2,0],[0.5,0,0],[0.995,0.63,0],[0.72,0.99,0],[0.5,1,0],[0.28,0.99,0]];verticalLabelPosition=bottom;align=center;verticalAlign=top;shape=mxgraph.kubernetes.icon;prIcon=ep;rounded=0;labelBackgroundColor=none;strokeWidth=1;fontFamily=Helvetica;fontSize=12;fontColor=#000000;" parent="1" vertex="1">
          <mxGeometry x="584" y="460" width="50" height="48" as="geometry" />
        </mxCell>
        <mxCell id="25" value="" style="sketch=0;html=1;dashed=0;whitespace=wrap;fillColor=#2875E2;strokeColor=#ffffff;points=[[0.005,0.63,0],[0.1,0.2,0],[0.9,0.2,0],[0.5,0,0],[0.995,0.63,0],[0.72,0.99,0],[0.5,1,0],[0.28,0.99,0]];verticalLabelPosition=bottom;align=center;verticalAlign=top;shape=mxgraph.kubernetes.icon;prIcon=ep;rounded=0;labelBackgroundColor=none;strokeWidth=1;fontFamily=Helvetica;fontSize=12;fontColor=#000000;" parent="1" vertex="1">
          <mxGeometry x="584" y="654" width="50" height="48" as="geometry" />
        </mxCell>
        <mxCell id="31" value="DB" style="shape=cylinder3;whiteSpace=wrap;html=1;boundedLbl=1;backgroundOutline=1;size=15;rounded=0;labelBackgroundColor=none;strokeColor=#000000;strokeWidth=1;fontFamily=Helvetica;fontSize=12;fontColor=#000000;fillColor=#FFFFFF;gradientColor=none;" parent="1" vertex="1">
          <mxGeometry x="863.81" y="329" width="59" height="61" as="geometry" />
        </mxCell>
        <mxCell id="37" style="edgeStyle=none;shape=connector;rounded=1;html=1;entryX=0;entryY=0.5;entryDx=0;entryDy=0;labelBackgroundColor=default;strokeColor=#000000;fontFamily=Helvetica;fontSize=12;fontColor=#000000;endArrow=classic;" parent="1" source="36" target="2" edge="1">
          <mxGeometry relative="1" as="geometry" />
        </mxCell>
        <mxCell id="36" value="HTTP Client" style="rounded=0;whiteSpace=wrap;html=1;labelBackgroundColor=none;strokeColor=#000000;strokeWidth=1;fontFamily=Helvetica;fontSize=12;fontColor=#000000;fillColor=#FFFFFF;gradientColor=none;" parent="1" vertex="1">
          <mxGeometry x="80" y="446.75" width="92" height="89.5" as="geometry" />
        </mxCell>
        <mxCell id="s_vnEofQzstfLWQiZtuY-153" style="edgeStyle=orthogonalEdgeStyle;rounded=0;orthogonalLoop=1;jettySize=auto;html=1;entryX=0;entryY=0.5;entryDx=0;entryDy=0;" parent="1" source="s_vnEofQzstfLWQiZtuY-65" target="s_vnEofQzstfLWQiZtuY-149" edge="1">
          <mxGeometry relative="1" as="geometry" />
        </mxCell>
        <UserObject label="Prometheus" lucidchartObjectId="M_TiSjEUmTNv" id="s_vnEofQzstfLWQiZtuY-65">
          <mxCell style="html=1;whiteSpace=wrap;shape=cylinder;direction=south;size=0.1;anchorPointDirection=0;boundedLbl=1;;fontSize=11;fontColor=#000000;spacing=3;strokeOpacity=100;rounded=1;absoluteArcSize=1;arcSize=6;" parent="1" vertex="1" zOrder="141">
            <mxGeometry x="926" y="201" width="119" height="50" as="geometry" />
          </mxCell>
        </UserObject>
        <mxCell id="s_vnEofQzstfLWQiZtuY-149" value="Grafana" style="rounded=0;whiteSpace=wrap;html=1;" parent="1" vertex="1">
          <mxGeometry x="1360" y="196" width="120" height="60" as="geometry" />
        </mxCell>
        <mxCell id="s_vnEofQzstfLWQiZtuY-162" value="Cache" style="shape=cylinder3;whiteSpace=wrap;html=1;boundedLbl=1;backgroundOutline=1;size=15;rounded=0;labelBackgroundColor=none;strokeColor=#000000;strokeWidth=1;fontFamily=Helvetica;fontSize=12;fontColor=#000000;fillColor=#FFFFFF;gradientColor=none;" parent="1" vertex="1">
          <mxGeometry x="782.5" y="153" width="59" height="61" as="geometry" />
        </mxCell>
        <mxCell id="s_vnEofQzstfLWQiZtuY-164" value="" style="group" parent="1" vertex="1" connectable="0">
          <mxGeometry x="1250" y="402" width="116" height="184" as="geometry" />
        </mxCell>
        <mxCell id="s_vnEofQzstfLWQiZtuY-144" value="Event Broker" style="rounded=1;whiteSpace=wrap;html=1;" parent="s_vnEofQzstfLWQiZtuY-164" vertex="1">
          <mxGeometry width="116" height="184" as="geometry" />
        </mxCell>
        <mxCell id="FIPvN2V3glUDYVnrCExD-13" value="" style="shape=image;verticalLabelPosition=bottom;labelBackgroundColor=default;verticalAlign=top;imageAspect=0;image=data:image/svg+xml,PHN2ZyB4bWxucz0iaHR0cDovL3d3dy53My5vcmcvMjAwMC9zdmciIGZpbGw9Im5vbmUiIHZpZXdCb3g9IjAgMCA0OCA0OCIgaGVpZ2h0PSI0OCIgd2lkdGg9IjQ4Ij4mI3hhOzxwYXRoIGZpbGw9IiMwNDA1MzEiIGQ9Ik0yNyA4QzI3IDkuMTA0NTcgMjYuMTA0NiAxMCAyNSAxMEMyMy44OTU0IDEwIDIzIDkuMTA0NTcgMjMgOEMyMyA2Ljg5NTQzIDIzLjg5NTQgNiAyNSA2QzI2LjEwNDYgNiAyNyA2Ljg5NTQzIDI3IDhaTTI2LjQ4MzQgMTIuNzc2M0MyOC41MjA1IDEyLjE0NDMgMzAgMTAuMjQ0OSAzMCA4QzMwIDUuMjM4NTggMjcuNzYxNCAzIDI1IDNDMjIuMjM4NiAzIDIwIDUuMjM4NTggMjAgOEMyMCAxMC4yNDQ5IDIxLjQ3OTUgMTIuMTQ0MyAyMy41MTY2IDEyLjc3NjNDMjMuNTA1NyAxMi44NDkzIDIzLjUgMTIuOTI0IDIzLjUgMTNWMTYuNjVDMjAuMDc2NiAxNy4zNDQ5IDE3LjUgMjAuMzcxNiAxNy41IDI0QzE3LjUgMjcuNjI4NCAyMC4wNzY2IDMwLjY1NTEgMjMuNSAzMS4zNVYzNUMyMy41IDM1LjA3NiAyMy41MDU3IDM1LjE1MDcgMjMuNTE2NiAzNS4yMjM3QzIxLjQ3OTUgMzUuODU1NyAyMCAzNy43NTUxIDIwIDQwQzIwIDQyLjc2MTQgMjIuMjM4NiA0NSAyNSA0NUMyNy43NjE0IDQ1IDMwIDQyLjc2MTQgMzAgNDBDMzAgMzcuNzU1MSAyOC41MjA1IDM1Ljg1NTcgMjYuNDgzNCAzNS4yMjM3QzI2LjQ5NDMgMzUuMTUwNyAyNi41IDM1LjA3NiAyNi41IDM1VjMxLjM1QzI4LjIxOTMgMzEuMDAxIDI5LjcyNSAzMC4wNjM5IDMwLjc5OCAyOC43NTc4TDM1LjE5IDMxLjQ2NjRDMzUuMTAwNiAzMi4xMTY3IDM1LjEzODYgMzIuNzk1NCAzNS4zMjMzIDMzLjQ2ODRDMzYuMDU0MiAzNi4xMzE0IDM4LjgwNTQgMzcuNjk3NyA0MS40NjgzIDM2Ljk2NjhDNDQuMTMxMyAzNi4yMzYgNDUuNjk3NiAzMy40ODQ4IDQ0Ljk2NjcgMzAuODIxOEM0NC4yMzU5IDI4LjE1ODkgNDEuNDg0NyAyNi41OTI2IDM4LjgyMTcgMjcuMzIzNEMzNy44OTEzIDI3LjU3ODggMzcuMDk0OCAyOC4wODA3IDM2LjQ4MzMgMjguNzM5NEwzMi4yMDIzIDI2LjA5OTFDMzIuMzk2MSAyNS40MzMgMzIuNSAyNC43Mjg3IDMyLjUgMjRDMzIuNSAyMy4zMTg2IDMyLjQwOTEgMjIuNjU4NCAzMi4yMzg4IDIyLjAzMDhMMzYuNTc1OCAxOS42NDhDMzcuMTc3NCAyMC4yNTU4IDM3Ljk0MyAyMC43MTczIDM4LjgyODQgMjAuOTU1NUM0MS40OTUgMjEuNjcyOCA0NC4yMzgyIDIwLjA5MjUgNDQuOTU1NSAxNy40MjU5QzQ1LjY3MjggMTQuNzU5MiA0NC4wOTI1IDEyLjAxNiA0MS40MjU5IDExLjI5ODdDMzguNzU5MiAxMC41ODE1IDM2LjAxNiAxMi4xNjE3IDM1LjI5ODggMTQuODI4NEMzNS4xMDM0IDE1LjU1NDQgMzUuMDc4NSAxNi4yODYyIDM1LjE5OTQgMTYuOTgxMkwzMC44ODU5IDE5LjM1MTJDMjkuODA3OSAxNy45ODgzIDI4LjI2NjcgMTcuMDA4NyAyNi41IDE2LjY1VjEzQzI2LjUgMTIuOTI0IDI2LjQ5NDMgMTIuODQ5MyAyNi40ODM0IDEyLjc3NjNaTTI1IDI4LjVDMjcuNDg1MyAyOC41IDI5LjUgMjYuNDg1MyAyOS41IDI0QzI5LjUgMjEuNTE0NyAyNy40ODUzIDE5LjUgMjUgMTkuNUMyMi41MTQ3IDE5LjUgMjAuNSAyMS41MTQ3IDIwLjUgMjRDMjAuNSAyNi40ODUzIDIyLjUxNDcgMjguNSAyNSAyOC41Wk0yNSA0MkMyNi4xMDQ2IDQyIDI3IDQxLjEwNDYgMjcgNDBDMjcgMzguODk1NCAyNi4xMDQ2IDM4IDI1IDM4QzIzLjg5NTQgMzggMjMgMzguODk1NCAyMyA0MEMyMyA0MS4xMDQ2IDIzLjg5NTQgNDIgMjUgNDJaTTQwLjY0NjYgMTQuMTk1OEM0MS43MTMzIDE0LjQ4MjcgNDIuMzQ1NCAxNS41OCA0Mi4wNTg1IDE2LjY0NjZDNDEuNzcxNiAxNy43MTMzIDQwLjY3NDMgMTguMzQ1NCAzOS42MDc2IDE4LjA1ODVDMzguNTQxIDE3Ljc3MTYgMzcuOTA4OSAxNi42NzQzIDM4LjE5NTggMTUuNjA3NkMzOC40ODI3IDE0LjU0MSAzOS41OCAxMy45MDg4IDQwLjY0NjYgMTQuMTk1OFpNNDAuNjc0MyAzNC4wNzM4QzQxLjczOTUgMzMuNzgxNSA0Mi4zNjYgMzIuNjgxIDQyLjA3MzcgMzEuNjE1OEM0MS43ODE0IDMwLjU1MDYgNDAuNjgwOSAyOS45MjQxIDM5LjYxNTcgMzAuMjE2NEMzOC41NTA1IDMwLjUwODggMzcuOTI0IDMxLjYwOTMgMzguMjE2MyAzMi42NzQ0QzM4LjUwODcgMzMuNzM5NiAzOS42MDkyIDM0LjM2NjEgNDAuNjc0MyAzNC4wNzM4WiIgY2xpcC1ydWxlPSJldmVub2RkIiBmaWxsLXJ1bGU9ImV2ZW5vZGQiLz4mI3hhOzxwYXRoIGZpbGw9InVybCgjcGFpbnQwX2xpbmVhcikiIGQ9Ik0xMCAyNEMxMCAxOC44NDU4IDEzLjc1NjggMTUgMTggMTVMMTggMTFDMTEuMTk3NSAxMSA2IDE3LjAwMzkgNiAyNEM2IDMwLjk5NjEgMTEuMTk3NSAzNyAxOCAzN0wxOCAzM0MxMy43NTY4IDMzIDEwIDI5LjE1NDIgMTAgMjRaIiBjbGlwLXJ1bGU9ImV2ZW5vZGQiIGZpbGwtcnVsZT0iZXZlbm9kZCIvPiYjeGE7PGRlZnM+JiN4YTs8bGluZWFyR3JhZGllbnQgZ3JhZGllbnRVbml0cz0idXNlclNwYWNlT25Vc2UiIHkyPSIzNSIgeDI9IjE4IiB5MT0iMTMiIHgxPSIxOCIgaWQ9InBhaW50MF9saW5lYXIiPiYjeGE7PHN0b3Agc3RvcC1jb2xvcj0iIzM5Q0RFRSIvPiYjeGE7PHN0b3Agc3RvcC1vcGFjaXR5PSIwLjQiIHN0b3AtY29sb3I9IiMzOENDRUQiIG9mZnNldD0iMSIvPiYjeGE7PC9saW5lYXJHcmFkaWVudD4mI3hhOzwvZGVmcz4mI3hhOzwvc3ZnPg==;aspect=fixed;rounded=1;fontColor=#000000;" parent="s_vnEofQzstfLWQiZtuY-164" vertex="1">
          <mxGeometry width="33" height="33" as="geometry" />
        </mxCell>
        <mxCell id="s_vnEofQzstfLWQiZtuY-165" value="Cache" style="shape=cylinder3;whiteSpace=wrap;html=1;boundedLbl=1;backgroundOutline=1;size=15;rounded=0;labelBackgroundColor=none;strokeColor=#000000;strokeWidth=1;fontFamily=Helvetica;fontSize=12;fontColor=#000000;fillColor=#FFFFFF;gradientColor=none;" parent="1" vertex="1">
          <mxGeometry x="794" y="397" width="59" height="61" as="geometry" />
        </mxCell>
        <mxCell id="s_vnEofQzstfLWQiZtuY-169" style="edgeStyle=orthogonalEdgeStyle;rounded=0;orthogonalLoop=1;jettySize=auto;html=1;entryX=1.007;entryY=0.694;entryDx=0;entryDy=0;entryPerimeter=0;" parent="1" source="s_vnEofQzstfLWQiZtuY-168" target="s_vnEofQzstfLWQiZtuY-144" edge="1">
          <mxGeometry relative="1" as="geometry" />
        </mxCell>
        <mxCell id="s_vnEofQzstfLWQiZtuY-168" value="Email SVC" style="rounded=0;whiteSpace=wrap;html=1;" parent="1" vertex="1">
          <mxGeometry x="1501" y="616" width="120" height="60" as="geometry" />
        </mxCell>
        <mxCell id="s_vnEofQzstfLWQiZtuY-176" style="edgeStyle=orthogonalEdgeStyle;rounded=0;orthogonalLoop=1;jettySize=auto;html=1;entryX=0;entryY=0.75;entryDx=0;entryDy=0;" parent="1" source="s_vnEofQzstfLWQiZtuY-171" target="s_vnEofQzstfLWQiZtuY-149" edge="1">
          <mxGeometry relative="1" as="geometry" />
        </mxCell>
        <UserObject label="Prometheus" lucidchartObjectId="M_TiSjEUmTNv" id="s_vnEofQzstfLWQiZtuY-171">
          <mxCell style="html=1;whiteSpace=wrap;shape=cylinder;direction=south;size=0.1;anchorPointDirection=0;boundedLbl=1;;fontSize=11;fontColor=#000000;spacing=3;strokeOpacity=100;rounded=1;absoluteArcSize=1;arcSize=6;" parent="1" vertex="1" zOrder="141">
            <mxGeometry x="926" y="626" width="119" height="50" as="geometry" />
          </mxCell>
        </UserObject>
        <mxCell id="s_vnEofQzstfLWQiZtuY-175" style="edgeStyle=orthogonalEdgeStyle;rounded=0;orthogonalLoop=1;jettySize=auto;html=1;entryX=0;entryY=0.624;entryDx=0;entryDy=0;entryPerimeter=0;" parent="1" source="s_vnEofQzstfLWQiZtuY-172" target="s_vnEofQzstfLWQiZtuY-149" edge="1">
          <mxGeometry relative="1" as="geometry" />
        </mxCell>
        <UserObject label="Prometheus" lucidchartObjectId="M_TiSjEUmTNv" id="s_vnEofQzstfLWQiZtuY-172">
          <mxCell style="html=1;whiteSpace=wrap;shape=cylinder;direction=south;size=0.1;anchorPointDirection=0;boundedLbl=1;;fontSize=11;fontColor=#000000;spacing=3;strokeOpacity=100;rounded=1;absoluteArcSize=1;arcSize=6;" parent="1" vertex="1" zOrder="141">
            <mxGeometry x="926" y="408" width="119" height="50" as="geometry" />
          </mxCell>
        </UserObject>
        <mxCell id="FDkSP8f7pUUsBcrE6dv--76" value="DB" style="shape=cylinder3;whiteSpace=wrap;html=1;boundedLbl=1;backgroundOutline=1;size=15;rounded=0;labelBackgroundColor=none;strokeColor=#000000;strokeWidth=1;fontFamily=Helvetica;fontSize=12;fontColor=#000000;fillColor=#FFFFFF;gradientColor=none;" parent="1" vertex="1">
          <mxGeometry x="863.81" y="76" width="59" height="61" as="geometry" />
        </mxCell>
      </root>
    </mxGraphModel>
  </diagram>
</mxfile>
